<svg xmlns="http://www.w3.org/2000/svg" viewBox="0 0 128 128" role="img" aria-label="Rasial Helper icon">
  <defs>
    <linearGradient id="bg" x1="0" x2="1" y1="0" y2="1">
      <stop offset="0%" stop-color="#0f1b20" />
      <stop offset="100%" stop-color="#1f3731" />
    </linearGradient>
    <linearGradient id="accent" x1="0" x2="1" y1="0" y2="1">
      <stop offset="0%" stop-color="#7ee081" />
      <stop offset="100%" stop-color="#f4b860" />
    </linearGradient>
  </defs>
  <rect width="128" height="128" rx="28" fill="url(#bg)" />
  <path
    d="M64 20c16 0 28 9 28 22 0 10-6 17-15 22 8 5 13 12 13 20 0 15-13 24-31 24-9 0-18-2-26-7l8-13c5 3 11 5 17 5 9 0 15-4 15-10 0-7-6-11-17-11h-8V59h8c9 0 15-4 15-11 0-6-5-10-13-10-7 0-13 2-18 6L31 31c10-7 20-11 33-11Z"
    fill="url(#accent)"
  />
  <circle cx="98" cy="30" r="8" fill="#7ee081" opacity="0.95" />
</svg>
